<svg width="88" height="24" viewBox="0 0 88 24" fill="none" xmlns="http://www.w3.org/2000/svg">
<path d="M81.7438 17.0918C79.6117 17.0918 78.0399 16.6015 77.0283 15.6211C76.0167 14.6251 75.5109 13.1933 75.5109 11.3258C75.5109 9.47379 76.0167 8.04979 77.0283 7.05378C78.0554 6.05776 79.6273 5.55975 81.7438 5.55975C83.8759 5.55975 85.4477 6.05776 86.4593 7.05378C87.4865 8.04979 88 9.47379 88 11.3258C88 13.1933 87.4942 14.6251 86.4827 15.6211C85.4711 16.6015 83.8915 17.0918 81.7438 17.0918ZM81.7438 14.1504C82.6153 14.1504 83.2378 13.9325 83.6113 13.4968C83.9848 13.061 84.1716 12.3373 84.1716 11.3258C84.1716 10.3142 83.9848 9.59051 83.6113 9.15475C83.2378 8.71899 82.6153 8.50111 81.7438 8.50111C80.8879 8.50111 80.2731 8.71899 79.8996 9.15475C79.5261 9.59051 79.3394 10.3142 79.3394 11.3258C79.3394 12.3373 79.5261 13.061 79.8996 13.4968C80.2731 13.9325 80.8879 14.1504 81.7438 14.1504Z" fill="#00050B"/>
<path d="M66.683 16.8583V5.79319H70.2546L70.3714 6.82034C70.8538 6.52464 71.453 6.26008 72.1689 6.02664C72.8847 5.77763 73.6006 5.622 74.3165 5.55975V8.38439C73.9119 8.43108 73.4606 8.5089 72.9626 8.61783C72.4801 8.71121 72.0132 8.82793 71.5619 8.968C71.1261 9.10806 70.7526 9.25591 70.4414 9.41154V16.8583H66.683Z" fill="#00050B"/>
<path d="M52.0309 21.9006V5.79319H55.2991L55.4859 6.7503C55.9372 6.3768 56.443 6.08889 57.0032 5.88657C57.5635 5.66869 58.2171 5.55975 58.9642 5.55975C60.536 5.55975 61.781 5.98773 62.6992 6.84368C63.6174 7.68407 64.0765 9.10028 64.0765 11.0923C64.0765 13.0688 63.6019 14.5628 62.6525 15.5744C61.7188 16.586 60.427 17.0918 58.7774 17.0918C57.6102 17.0918 56.6142 16.8505 55.7894 16.3681V21.9006H52.0309ZM57.8203 14.3371C59.4388 14.3371 60.2481 13.2322 60.2481 11.0223C60.2481 9.96401 60.0613 9.24813 59.6878 8.87462C59.3143 8.50111 58.7151 8.31436 57.8903 8.31436C57.0966 8.31436 56.3963 8.59449 55.7894 9.15475V13.6368C56.085 13.8547 56.3807 14.0259 56.6764 14.1504C56.9877 14.2749 57.369 14.3371 57.8203 14.3371Z" fill="#00050B"/>
<path d="M32.5221 17.0917C31.1526 17.0917 30.141 16.7415 29.4874 16.0412C28.8493 15.3409 28.5303 14.376 28.5303 13.1465V8.64112H27.0363V5.79314H28.5303V3.48207L32.2887 2.47827V5.79314H34.9733L34.8098 8.64112H32.2887V12.8898C32.2887 13.4189 32.421 13.7924 32.6855 14.0103C32.9501 14.2126 33.3469 14.3137 33.8761 14.3137C34.3274 14.3137 34.7865 14.2359 35.2534 14.0803V16.6248C34.5219 16.9361 33.6115 17.0917 32.5221 17.0917Z" fill="#00050B"/>
<path d="M17.1024 16.8583L12.7371 5.79321H16.6589L19.0867 12.9832L21.5378 5.79321H25.4596L21.0943 16.8583H17.1024Z" fill="#00050B"/>
<path d="M3.92181 17.0918C3.22149 17.0918 2.56785 16.9673 1.96091 16.7182C1.36952 16.4692 0.894858 16.088 0.536915 15.5744C0.178972 15.0453 0 14.3916 0 13.6135C0 12.4774 0.381287 11.5903 1.14386 10.9522C1.922 10.2986 3.08142 9.97179 4.62214 9.97179H7.70356V9.71501C7.70356 9.15475 7.51681 8.7579 7.1433 8.52446C6.7698 8.27545 6.06947 8.15095 5.04233 8.15095C3.78175 8.15095 2.54451 8.34549 1.33062 8.73455V6.30677C1.87531 6.08889 2.53673 5.90992 3.31487 5.76985C4.10857 5.62979 4.94117 5.55975 5.81269 5.55975C7.52459 5.55975 8.86299 5.90992 9.82788 6.61024C10.8083 7.31056 11.2986 8.4233 11.2986 9.94845V16.8583H8.00703L7.82028 15.9245C7.41565 16.2981 6.8943 16.586 6.25623 16.7883C5.63372 16.9906 4.85558 17.0918 3.92181 17.0918ZM5.11236 14.7807C5.70375 14.7807 6.21732 14.6795 6.65308 14.4772C7.08883 14.2749 7.43899 14.0181 7.70356 13.7069V12.1428H5.04233C3.93738 12.1428 3.3849 12.5863 3.3849 13.4734C3.3849 13.878 3.52496 14.1971 3.80509 14.4305C4.08522 14.664 4.52098 14.7807 5.11236 14.7807Z" fill="#00050B"/>
<circle cx="43.6078" cy="11.3958" r="5.83603" fill="#1D5CBA"/>
</svg>
