<svg width="24" height="24" viewBox="0 0 24 24" fill="none" xmlns="http://www.w3.org/2000/svg">
<path d="M6.50006 21C5.94778 21 5.50005 20.5523 5.50005 20L5.49992 8.99998L3.00003 8.99998C2.59557 8.99998 2.23093 8.75633 2.07615 8.38266C1.92137 8.00899 2.00692 7.57887 2.29292 7.29287L6.29292 3.29287C6.68345 2.90235 7.31661 2.90235 7.70714 3.29287L11.7071 7.29287C11.9931 7.57887 12.0787 8.00899 11.9239 8.38266C11.7691 8.75633 11.4045 8.99998 11 8.99998L8.49992 8.99998L8.50005 20C8.50005 20.5523 8.05234 21 7.50006 21L6.50006 21Z" fill="#00050B"/>
<path d="M21 15C21.4045 15 21.7691 15.2436 21.9239 15.6173C22.0787 15.991 21.9931 16.4211 21.7071 16.7071L18.5001 19.9142L18.5001 20L18.4142 20L17.7071 20.7071C17.3166 21.0976 16.6834 21.0976 16.2929 20.7071L15.5858 20L15.5001 20L15.5001 19.9142L12.2929 16.7071C12.0069 16.4211 11.9214 15.991 12.0762 15.6173C12.2309 15.2436 12.5956 15 13 15L15.5001 15L15.5001 4C15.5001 3.44772 15.9478 3 16.5001 3L17.5001 3C18.0523 3 18.5001 3.44772 18.5001 4L18.5001 15L21 15Z" fill="#00050B"/>
</svg>
